<?xml version="1.0" encoding="UTF-8"?>
<svg id="Layer_1" data-name="Layer 1" xmlns="http://www.w3.org/2000/svg" viewBox="0 0 130.13 85.19">
  <path d="m124.57,45.82c-2.97-3.14-6.58-5.37-10.44-7.24-5-2.42-10.29-4-15.59-5.56-2.41-.71-4.78-1.57-6.82-3.11-4.07-3.07-4.15-8.82-.18-12,2.23-1.79,4.84-2.51,7.63-2.61,5.09-.18,9.43,1.74,13.25,4.96,1.11.94,2.17,1.93,3.32,2.95,3.83-3,7.86-6.15,12.08-9.45-1.36-1.53-2.52-3.16-3.99-4.43C114.57,1.26,103.87-1.77,91.84,1c-10.37,2.39-18.21,10.28-18.99,21.17-.48,6.65,1.65,12.25,6.71,16.67,3.28,2.86,7.08,4.82,11.1,6.38,2.02.78,4.43,1.56,6.47,2.29-.25.01-.62-.04-.74-.06-4.82-.85-9.61-.91-14.33.64-9.53,3.14-13.71,12.94-9.36,21.99,2.16,4.49,5.64,7.73,9.9,10.16,8.53,4.88,17.66,6.07,27.18,3.9,11.1-2.53,18.92-10.39,20.16-21.08.76-6.52-.77-12.38-5.37-17.25Zm-15.46,22.22c-6.11,2.91-12.26,2.85-18.02-.74-2.93-1.83-4.48-4.88-3.98-8.44.49-3.48,2.75-5.62,5.86-6.94,1.71-.72,3.51-1.01,5.35-.8h0s1.06.23,1.06.23l.53-1.89c.12-.36.25-.74.39-1.15,3.43,1.06,6.71,2.2,9.67,4.13,6.48,4.23,5.26,12.69-.85,15.6Z" style="fill: blue; stroke-width: 0px;"/>
  <g id="nGM7nI">
    <path d="m0,1.54h1.02c11.83,0,23.67,0,35.5,0,4.38,0,8.59.74,12.58,2.65,7.36,3.51,11.26,11.13,9.53,18.79-.9,4-3.41,6.74-6.93,8.64-3.5,1.89-7.31,2.7-11.22,3.14-1.07.12-2.15.19-3.06.27,2.08.34,4.36.55,6.55,1.09,7.57,1.88,13.55,5.92,16.51,13.37,5.06,12.7-.34,27.86-16.07,32.36-2.57.73-5.32,1.13-7.99,1.15-11.93.12-23.86.06-35.79.06-.19,0-.38-.02-.64-.03V1.54Zm15.83,67c.23.02.38.05.53.05,6.68,0,13.36.05,20.04-.07,1.5-.03,3.1-.48,4.47-1.14,3.39-1.61,5.28-4.44,5.51-8.2.23-3.73-1.05-6.82-4.31-8.87-2-1.26-4.24-1.64-6.57-1.64-6.27.01-12.54,0-18.8,0-.28,0-.55.03-.87.05v19.81Zm17.9-36.42c2.17-.1,4.12-.48,5.85-1.61,2.6-1.7,3.77-4.16,3.55-7.23-.21-2.99-1.79-5.09-4.51-6.32-1.65-.75-3.41-.96-5.2-.95-5.53.01-11.06,0-16.59,0-.31,0-.62.03-.98.05v19.03h17.89v-2.97Z" style="fill: blue; stroke-width: 0px;"/>
  </g>
</svg>