<?xml version="1.0" encoding="UTF-8"?>
<svg id="Layer_1" data-name="Layer 1" xmlns="http://www.w3.org/2000/svg" viewBox="0 0 419.81 101.35">
  <g>
    <path d="m201.5,67.3h-6.99v-11.85c-.2,1.75-.45,3.48-1,5.16-.77,2.35-1.96,4.43-4.02,5.9-2.02,1.45-4.31,1.85-6.7,1.56-5.43-.64-8.88-3.84-10.68-8.82-1.76-4.88-1.39-9.67,1.59-14.01,2.98-4.34,7.24-6.24,12.48-5.87,3.38.24,6.08,1.8,8.09,4.53.04.06.09.11.2.23v-4h7.02v27.17Zm-7-13.63c-.05-2.36-.85-4.32-2.58-5.86-1.7-1.52-3.74-2.15-5.98-2.14-2.36.02-4.39.86-5.92,2.7-1.6,1.94-2.08,4.19-1.77,6.64.49,3.89,3.31,6.47,7.23,6.6,3.63.11,6.59-2.19,7.34-5.74.15-.72.22-1.45.34-2.21h1.34Z" style="stroke-width: 0px;"/>
    <path d="m291.16,49.65c.29-1.16.57-2.57,1.01-3.93.57-1.76,1.57-3.3,2.98-4.53,3.19-2.79,8.11-2.45,11.01.72,1.57,1.72,2.41,3.77,2.76,6.03.16,1.01.24,2.04.25,3.06.02,5.28.01,10.56.01,15.84,0,.15-.01.29-.02.46h-6.96c0-.18,0-.37,0-.55,0-5.21,0-10.41-.01-15.62,0-.77-.05-1.55-.23-2.3-.89-3.83-4.65-4.05-6.74-2.66-1.57,1.05-2.39,2.56-2.62,4.41-.03.23-.04.47-.07.75h-1.35v15.97h-7.01V29.24h6.98v20.41Z" style="stroke-width: 0px;"/>
    <path d="m266.95,55.84c-.47-.16-.94-.32-1.41-.49-1.83-.7-3.56-1.59-4.91-3.06-2.05-2.24-2.46-5.57-1.02-8.26,1.12-2.1,2.9-3.42,5.12-4.09,4.4-1.33,8.47-.64,12.1,2.22.79.63,1.43,1.45,2.19,2.24-1.61,1.3-3.12,2.52-4.61,3.72-.58-.59-1.11-1.2-1.71-1.71-1.18-1.01-2.55-1.57-4.13-1.48-.74.04-1.44.22-2.06.64-1.38.93-1.39,2.57,0,3.49,1.18.78,2.55,1.13,3.89,1.49,1.86.49,3.68,1.07,5.32,2.11,1.98,1.25,3.53,2.87,4.01,5.23.66,3.29-.47,5.96-3.12,7.94-2.62,1.95-5.65,2.46-8.84,2.25-2.2-.15-4.27-.75-6.14-1.94-1.08-.68-2.01-1.53-2.66-2.65-1.59-2.75-.56-5.78,2.37-7,1.62-.68,3.31-.79,5.03-.63.19.02.38.04.57.05,0-.02,0-.04.01-.06Zm1.15,1.75c-.68,0-1.34-.07-1.97.02-1.28.18-2.08,1.11-2,2.21.07.89.64,1.45,1.36,1.86,1.36.77,2.83.93,4.36.76.88-.1,1.71-.36,2.42-.94,1.28-1.04,1.28-2.7-.02-3.7-1.11-.85-2.43-1.18-3.76-1.55-.14.49-.26.92-.38,1.33Z" style="stroke-width: 0px;"/>
    <polygon points="224.84 40.25 224.84 46.8 228.97 46.8 228.97 67.3 236 67.3 236 46.79 242 46.79 242 40.25 224.84 40.25" style="stroke-width: 0px;"/>
    <path d="m168.53,61.43c0-.12-.02-.25-.03-.42-.96.5-1.93.7-2.96.74-1.61.06-2.76-.79-3.09-2.36-.1-.46-.13-.94-.13-1.42-.01-3.55,0-7.11,0-10.66,0-.16,0-.32,0-.53h6.18v-6.61h-17.63v6.63h4.48v.56c0,3.54,0,7.08,0,10.62,0,1.49.11,2.97.52,4.41.59,2.08,1.74,3.73,3.71,4.72,1.2.6,2.49.86,3.82.96,1.62.13,3.2-.04,4.74-.59.28-.1.41-.24.41-.57-.02-1.83,0-3.66-.01-5.49Z" style="stroke-width: 0px;"/>
    <path d="m214.32,40.13v8.98c.28-1.01.51-2.14.91-3.2.83-2.25,2.2-4.1,4.38-5.25,1.02-.54,2.12-.82,3.31-.82v7.57c-.71.09-1.42.14-2.11.28-1.82.38-3.42,1.17-4.41,2.82-.35.59-.72,2.23-.75,2.39h-1.32v14.39h-7.01v-27.16h6.99Z" style="stroke-width: 0px;"/>
    <path d="m253.53,67.3h-6.92v-27.19h6.92v27.19Z" style="stroke-width: 0px;"/>
    <path d="m254.32,32.34c-.02,2.28-1.95,4.16-4.26,4.15-2.4-.01-4.25-1.87-4.23-4.25.02-2.33,1.96-4.23,4.3-4.2,2.28.03,4.2,2,4.18,4.3Z" style="stroke-width: 0px;"/>
  </g>
  <path d="m147.41,49.74c-1.39-1.47-3.08-2.51-4.88-3.39-2.34-1.13-4.81-1.87-7.29-2.6-1.13-.33-2.23-.73-3.19-1.45-1.9-1.43-1.94-4.12-.08-5.61,1.04-.83,2.26-1.17,3.57-1.22,2.38-.09,4.41.81,6.19,2.32.52.44,1.01.9,1.55,1.38,1.79-1.4,3.68-2.87,5.65-4.42-.64-.72-1.18-1.48-1.86-2.07-4.33-3.77-9.33-5.19-14.95-3.89-4.85,1.12-8.51,4.81-8.88,9.9-.22,3.11.77,5.73,3.14,7.79,1.53,1.34,3.31,2.25,5.19,2.98.94.37,2.07.73,3.03,1.07-.12,0-.29-.02-.35-.03-2.26-.4-4.5-.43-6.7.3-4.46,1.47-6.41,6.05-4.38,10.28,1.01,2.1,2.64,3.62,4.63,4.75,3.99,2.28,8.26,2.84,12.71,1.82,5.19-1.18,8.84-4.86,9.43-9.85.35-3.05-.36-5.79-2.51-8.06Zm-7.23,10.39c-2.86,1.36-5.73,1.33-8.43-.35-1.37-.85-2.1-2.28-1.86-3.94.23-1.63,1.28-2.63,2.74-3.24.8-.34,1.64-.47,2.5-.37h0s.49.11.49.11l.25-.88c.06-.17.12-.35.18-.54,1.6.49,3.14,1.03,4.52,1.93,3.03,1.98,2.46,5.93-.4,7.29Z" style="stroke-width: 0px;"/>
  <g id="nGM7nI">
    <g>
      <path d="m2.17,29.04h.47c5.53,0,11.07,0,16.6,0,2.05,0,4.02.35,5.88,1.24,3.44,1.64,5.26,5.2,4.46,8.78-.42,1.87-1.59,3.15-3.24,4.04-1.64.88-3.42,1.26-5.24,1.47-.5.06-1.01.09-1.43.13.97.16,2.04.26,3.06.51,3.54.88,6.33,2.77,7.72,6.25,2.37,5.94-.16,13.03-7.51,15.13-1.2.34-2.49.53-3.73.54-5.58.06-11.15.03-16.73.03-.09,0-.18,0-.3-.01V29.04Zm7.4,31.32c.11.01.18.02.25.02,3.12,0,6.25.03,9.37-.03.7-.01,1.45-.23,2.09-.53,1.59-.75,2.47-2.07,2.58-3.83.11-1.74-.49-3.19-2.01-4.15-.93-.59-1.98-.77-3.07-.76-2.93,0-5.86,0-8.79,0-.13,0-.26.02-.41.02v9.26Zm8.37-17.03c1.02-.05,1.93-.22,2.73-.75,1.22-.8,1.76-1.95,1.66-3.38-.1-1.4-.84-2.38-2.11-2.96-.77-.35-1.59-.45-2.43-.45-2.59,0-5.17,0-7.76,0-.14,0-.29.01-.46.02v8.9h8.37v-1.39Z" style="stroke-width: 0px;"/>
      <path d="m85.86,56.25c.53,2.42,2.56,5.05,6,5.62,3.01.5,5.73-.15,7.97-2.4,1.55,1.24,3.09,2.48,4.73,3.78-.74.62-1.41,1.24-2.15,1.78-5.25,3.81-12.65,3.95-17.91.21-4.44-3.16-6.48-7.57-6.01-12.99.58-6.8,5.71-12.04,12.5-12.96,3.46-.47,6.74.05,9.69,2,3.03,2,4.78,4.91,5.65,8.37.56,2.24.69,4.56.44,6.59h-20.92Zm-.07-5.36h14.24c-.26-1.71-.98-3.14-2.28-4.24-3.14-2.65-8.28-1.92-10.69,1.5-.59.83-1.02,1.73-1.26,2.74Z" style="stroke-width: 0px;"/>
      <path d="m65.97,55.91h1.4v-15.96h6.95v27.18h-6.95v-9.32c-.29,1.14-.53,2.43-.95,3.65-.76,2.2-2.01,4.08-4.02,5.35-3.13,1.98-7.49,1.32-10.05-1.49-1.55-1.71-2.4-3.74-2.75-5.98-.15-.98-.25-1.98-.25-2.97-.02-5.34-.01-10.68-.01-16.02,0-.12,0-.23,0-.38h7.03v.5c0,5.27-.01,10.53.01,15.8,0,.81.08,1.65.3,2.42,1,3.58,4.64,3.76,6.67,2.38,1.6-1.08,2.38-2.64,2.57-4.53.02-.19.03-.38.05-.63Z" style="stroke-width: 0px;"/>
      <path d="m43.48,67.13h-6.97V29.07h6.97v38.06Z" style="stroke-width: 0px;"/>
    </g>
  </g>
  <g>
    <path d="m369.66.74c.11-.19.2-.35.33-.58.13.27.23.47.33.67.37-.12.41-.32.24-.6.42-.08.81-.15,1.3-.24.39.3.89.64,1.33,1.03.29.26.58.35.95.27.2.28.37.57.59.82.3.33-.17.65.04,1.01.12.03.28.08.46.12-.05.23-.1.42-.15.68.21-.06.35-.1.48-.14.33.59.34,1.22.34,1.85,0,.06.02.16-.01.18-.52.33-.16.8-.02,1.05.27.48.1,1.01.35,1.46.04.07-.03.2-.08.29-.33.68-.31.81.26,1.29,0,.6-.03,1.2.01,1.8.02.3,0,.56-.08.85-.07.24.08.54.13.82.03.15.12.36.05.44-.19.21-.14.41-.1.64.07.48.03.95-.01,1.43-.05.55.07,1.12.12,1.72.13.04.28.1.42.15,0,.07.02.14,0,.15-.59.32-.33.84-.17,1.17.19.39.07.69,0,1.07.26.23.41.5.24.92-.13.32-.11.7-.11,1.05,0,.15.1.35.22.43.24.15.28.37.17.53-.38.53.03,1.05,0,1.58,0,.14.2.3-.04.44.28.56-.19,1.17.1,1.72.09.17.24.31.53.58-.15.08-.29.15-.51.27.13.18.26.36.41.56-.33.45-.15.92.1,1.35.22.39.3.76.22,1.2-.05.32.06.66.03.98-.03.27.02.45.17.7.21.34.22.78.3,1.19.01.07-.11.22-.17.22-.35.03-.35.26-.36.5-.01.47-.03.94.55,1.21-.17.07-.28.12-.47.2.34.23.63.42.32.85-.13.18-.02.52-.02.79.4.28.44-.26.77-.26.11.19.25.42.38.64.97.16,1.61-.42,2.28-.93.5-.38.93-.84,1.54-1.08.06-.02.08-.14.15-.26-.12-.05-.21-.09-.33-.14.06-.04.1-.08.16-.1.31-.12.59-.28.94-.3.26-.02.5-.12.51-.47,0-.12.19-.27.33-.34.21-.1.45-.14.72-.22-.09-.13-.18-.25-.26-.37.25-.31.52-.53,1.01-.44.35.07.57-.2.62-.58.01-.1.09-.24.18-.29.23-.11.48-.22.74-.26.5-.08.83-.36,1.16-.69.78-.78,1.55-1.57,2.35-2.33.3-.29.63-.53.65-1.03.61.19.88-.26,1.17-.55.23-.23.42-.46.75-.56.04-.01.05-.11.08-.2-.13-.03-.24-.06-.38-.09.05-.06.1-.15.13-.14.38.09.62-.13.73-.39.13-.28.49-.45.42-.82,0-.02,0-.06.02-.06.62-.01.34-.6.54-.78.29-.25.42-.61.75-.8.28-.16.47-.39.45-.74,0-.12.06-.24.1-.39.11.05.21.09.37.17.14-.29.29-.58.43-.87.04-.07.05-.19.11-.22.71-.37.58-1.18.99-1.7.02-.03.02-.08.02-.12q.07-.71.7-1.08c-.42-.42-.16-.74.22-1.04-.11-.13-.2-.25-.33-.4.36-.26.26-.82.78-1.03.18-.07.12-.25-.19-.63.07-.05.15-.1.22-.14.07-.04.15-.08.23-.12.02-.07.05-.13.05-.19-.02-.21-.1-.42.2-.54.08-.03.14-.16.18-.25.3-.74.83-1.3,1.51-1.72.47-.29.79-.59.48-1.28.28.14.43.22.61.31.27-.34.9-.13,1.09-.69.28.16.55.32.83.47.49.26.76.21,1.07-.24.34.52.6,1.11,1.27,1.34.06-.09.12-.2.19-.32.45.15.71.4.67.89-.02.22.05.46.31.49.39.04.41.34.58.61-.11.05-.22.1-.38.17.1.48.27.95.64,1.34.27.28.32,1.07,0,1.26-.38.22-.25.52-.23.75.03.41,0,.73-.38.98-.32.21-.1.5-.09.78-.31.19-.42.41-.19.78.11.19.09.49.04.72-.04.2-.17.36-.36.53-.29.27-.59.7-.49,1.15.06.23.05.41-.05.59-.23.41-.24.9-.6,1.29-.53.59-.56,1.4-.84,2.11-.2.52-.33,1.05-.51,1.57-.11.34-.2.68-.48.96-.13.13-.28.36-.23.5.14.5-.13.76-.45,1.08-.2.2-.25.53-.39.78-.24.43-.5.84-.75,1.27-.05.09-.14.22-.11.29.26.58-.16.74-.52.87-.23.53-.44,1.01-.66,1.49-.11.24-.4.42-.25.74.01.03-.01.1-.04.11-.53.22-.64.7-.81,1.14-.04.09-.11.2-.2.24-.49.23-.85.54-.9,1.09,0,.08-.14.16-.23.21-.5.27-.84.65-1.1,1.13-.14.26-.34.49-.52.73-.37-.14-.51.22-.77.32-.19.08-.37.21-.54.33-.42.29-.84.59-1.26.89-.14.1-.31.18-.42.31-.25.31-.41.67-.9.76-.17.03-.43.24-.25.55.03.05-.11.2-.19.33-.17-.09-.32-.17-.49-.26-.37.3-.84.5-.81,1.07-.68-.26-.87-.06-1.28.4-.28.32-.5.59-1,.59-.33,0-.67.2-1,.32-.37.14-.35.48-.34.81-.59-.3-.69-.28-1.34.32.1.05.18.1.33.17-.15.08-.32.23-.38.2-.49-.26-.77-.11-.96.36-.02.06-.19.09-.29.11-.25.06-.51.1-.83.17.05.2.09.37.15.59-.13-.01-.25-.01-.36-.05-.46-.14-.67-.09-.83.32-.13.34-.32.7-.08,1.08.02.04.03.09.06.11.68.33.65,1.02.92,1.57.15.32.31.62.41.95.07.21.18.48.56.43.15-.02.32.17.53.29-.13.18-.22.31-.31.43.09.38.36.34.75.18-.24.95.53,1.35.94,1.92.11.16.44.31.62.27.61-.14.45.26.48.57.13,0,.26.01.43.02-.05.12-.09.22-.14.33.36.35.52-.17.85-.17.35.26.77.53.71,1.05.77.45,1.49.89,2.23,1.29.77.42,1.55.8,2.34,1.19.13.06.3.08.45.07.67-.05.73-.03,1.04.57.27-.02.5.04.77.18.48.25,1.02.43,1.52.67.25.13.49.29.71.47.22.17.58.09.71.41.04.09.22.12.34.17.24.11.52.18.71.34.54.46,1.23.66,1.82,1.02.37.23.81.3,1.25.4.42.09.86.25,1.18.51.55.43,1.21.66,1.82.98.28-.15.32.24.57.22.21-.01.43.07.64.13.12.04.28.11.32.2.25.52.79.71,1.23,1.02.13.09.25.2.37.31.06.05.14.17.18.16.36-.1.55.25.85.3.82.12,1.43.71,2.21.92.12.03.23.14.31.24.53.66,1.26,1.04,2.05,1.35.12.05.24.12.32.22.33.39.65.79.96,1.2.21.27.44.54.56.85.17.43.29.87.72,1.15.05.03.04.15.07.29-.57-.08-.66.26-.78.66-.13.41-.29.87-.87.95-.1.02-.17.18-.37.39.37-.04.57-.06.85-.09-.34.22-.6.39-.86.56-.25.17-.35.13-.47-.16-.03-.07-.04-.14-.08-.26-.14.08-.27.12-.3.19-.17.41-.54.52-.94.6-.09.02-.19,0-.26.05-.5.27-.89.08-1.26-.29-.8.7-1.73.55-2.7.4.03-.21.15-.42-.14-.54-.21-.08-.4-.1-.55.06-.39.42-.85.37-1.33.23-.42-.12-.84-.23-1.27-.34.07-.17.13-.3.23-.53-.31.09-.5.14-.74.21-.17-.14-.35-.29-.54-.44-.03.03-.12.11-.23.2-.18-.17-.42-.19-.55-.48-.08-.18-.53-.23-.82-.29-.19-.04-.4.01-.6-.02-.18-.03-.44-.08-.51-.2-.21-.37-.59-.45-.95-.51-.55-.09-1.06-.23-1.54-.52-.17-.11-.47-.12-.68-.07-.63.16-1.13.07-1.66-.33-.56-.43-1.26-.66-2.02-.62-.07,0-.13.03-.2.03-.52.03-1.06.07-1.14-.65-.25.04-.44.07-.63.11-.21-.46-.24-.58-.95-.33-.23-.34.29-.37.27-.7-.37-.03-.75-.06-1.14-.09-.09,0-.18.01-.26.02-.51.05-.93-.05-1.04-.64-.22.03-.41.06-.59.09-.02-.03-.06-.06-.07-.09-.03-.36-.31-.39-.58-.37-.45.03-.61,0-.94-.26-.4-.31-.9-.33-1.36-.27-.31.04-.57.02-.65-.2-.19-.6-.77-.72-1.22-1-.23-.15-.49-.27-.75-.36-.17-.06-.37-.05-.59-.07-.03-.4-.32-.66-.69-.72-.3-.04-.29-.24-.4-.43-.11.07-.21.14-.31.2-.04-.02-.1-.03-.11-.06-.09-.21-.15-.4-.47-.45-.38-.05-.61-.36-.79-.67-.11-.2-.25-.26-.48-.34-.27-.1-.69-.15-.73-.63-.01-.18-.36-.35-.57-.5-.21-.15-.53-.22-.63-.41-.26-.49-.72-.71-1.19-.9.03-.74-.29-.9-.84-1,0-.69-.58-.96-1.09-1.23-.26-.13-.47-.17-.35-.53.05-.14-.15-.34-.31-.66-.08.29-.11.42-.15.55-.04.12-.06.29-.15.33-.31.16-.43.44-.63.68-.21.27-.32.45-.22.83.12.48-.4.74-.73,1.04-.11.1-.25.18-.32.29-.15.23.1.24.3.33-.7.24-.83.77-.83,1.34,0,.27-.12.34-.32.3-.15.33-.26.64-.43.92-.21.33-.38.64-.39,1.05,0,.2-.17.47-.35.58-.54.33-.6.85-.73,1.36-.03.12-.01.31-.08.34-.4.18-.36.53-.45.86-.09.31-.3.58-.43.87-.07.16-.04.36-.09.54-.07.24-.12.5-.25.71-.22.34-.55.61-.59,1.04,0,.07-.1.14-.16.19-.59.46-.71.67-.84,1.39-.02.09-.08.19-.16.26-.33.32-.45.72-.52,1.14-.02.1,0,.26-.05.3-.55.38-.42.9-.34,1.4-.65.44-.8.98-.51,1.89-.55.3-.71.83-.68,1.39.03.5-.19.91-.46,1.25-.39.47-.45,1.01-.63,1.54-.18.53-.43,1.02-.28,1.61.03.14-.26.35-.42.55.16.22.33.46-.06.65-.05.03-.11.08-.13.13-.11.4-.19.8-.33,1.19-.05.15-.24.26-.36.38.24.61.22.74-.21,1.29-.04.05-.01.14-.02.22,0,.06,0,.14-.04.16-.43.25-.66.75-.53,1.23.05.18.09.35.15.58-.41-.03-.54.18-.64.47-.22.63-.36,1.27-.49,1.91-.07.33-.26.64-.4.95-.05.1-.18.23-.16.3.22.52.04.88-.44,1.15-.07.04-.1.13-.15.2.1.17.18.33.27.48-.32.27-.37-.16-.66-.13-.03.17-.06.35-.1.63-.24.19-.62.45-.99.64-.36.19-.51.39-.63.76-.56-.36-.97.01-1.51.23-.36-.37-.8-.1-1.28.09-.1-.13-.2-.25-.32-.41-.56.37-1.08.34-1.59-.07.05-.1.1-.18.15-.28-.18-.12-.35-.27-.54-.35-.16-.07-.35-.09-.58-.14.09-.22.03-.41-.28-.52-.28-.1-.58-.25-.44-.63-.55-.52-.15-1.21-.33-1.8-.06-.18-.02-.4,0-.6.05-.35.06-.35-.34-.32-.06,0-.12-.02-.23-.04.09-.35.16-.69.25-1.03.01-.05.08-.08.13-.12.43-.32.51-.78.23-1.27.24-.09.33-.22.33-.45,0-.01-.03-.03-.04-.04.45-.38.28-.99.58-1.42.07-.1.17-.18.27-.25.3-.2.47-.53.36-.81-.18-.47.01-.71.41-.88-.06-.26-.12-.49-.18-.74.23-.06.49.16.57-.14.16-.55.31-1.1.43-1.65.02-.11-.12-.24-.2-.4.06-.07.21-.17.21-.26-.06-.77.53-1.52.12-2.31-.03-.05-.02-.15.01-.18.4-.44.32-1.02.51-1.52.03-.08.04-.16.05-.25.03-.41-.08-.89.11-1.21.24-.4.25-.81.28-1.21.03-.37-.04-.73.16-1.08.07-.12-.13-.35-.14-.53-.01-.17,0-.4.11-.51.4-.4.41-.39.08-.84.11-.06.25-.09.32-.17.09-.11.23-.32.19-.37-.44-.55,0-.93.27-1.37-.1-.17-.2-.33-.31-.51.25.09.44.05.41-.23-.02-.19-.1-.37-.16-.54.62-.72.75-1.57.81-2.46.03-.45.22-.89.11-1.36.43-.37.31-.99.66-1.4.09-.11.18-.34.12-.45-.3-.56-.02-1.08.14-1.58.19-.59.27-1.23.7-1.74.16-.2.03-.34-.16-.39.17-.14.42-.26.52-.45.08-.16.05-.43-.04-.59-.14-.27-.1-.46.05-.7.21-.35.36-.72.55-1.08.05-.09.1-.19.17-.26.47-.39.51-.87.31-1.44.56-.3.95-.7.56-1.43.19-.04.33-.07.48-.1.09-.18.16-.37.27-.55.13-.22.24-.42.21-.71-.05-.44.2-.8.63-.95.48-.16.69-.51.86-.91.15-.35.24-.73.39-1.08.05-.12.16-.25.28-.32.22-.13.47-.21.8-.35-.15-.11-.25-.24-.34-.23-.73.04-1.45.12-2.18.16-.56.02-1.12,0-1.68-.02-.46-.01-.92-.05-1.37.14-.11.05-.25.07-.38.06-1.05-.11-2.09-.04-3.14.06-.71.07-1.44,0-2.17-.02-.75-.02-1.5-.05-2.24-.05-.66,0-1.32.03-1.98.07-.24.01-.47.09-.71.09-.55-.01-1.1-.07-1.65-.08-.9-.02-1.81-.05-2.71-.04-.63.01-1.26.12-1.89.13-.22,0-.45-.14-.57-.19-1.83.18-3.55.19-5.31-.23-.24.08-.55.18-.87.27-.36.11-.64-.03-.82-.29-.43.02-.79.31-1.19.07-.03-.02-.09-.02-.13,0-1.22.43-2.46.07-3.69.05-.22,0-.46-.07-.66,0-.55.18-1.09.06-1.64,0-.63-.07-1.26-.11-1.87.11-.02,0-.04.03-.06.02-.78-.21-1.44.25-2.1.33-.18-.13-.33-.33-.45-.31-.16.03-.29.22-.47.37-.13-.31-.38-.24-.65-.2-.45.07-.9.19-1.36.21-.69.02-1.22-.22-1.74-.71-.54-.51-.6-1.1-.7-1.76-.15.05-.28.1-.45.17-.13-.2-.33-.35-.11-.62.08-.1.13-.3.08-.41-.26-.59.09-.95.54-1.2.27-.14.39-.34.47-.56.25-.77.56-1.05,1.36-1.17.09-.01.16-.1.25-.15.71-.44,1.1-1.27,1.98-1.52.17-.05.31-.22.46-.34.56-.46,1.24-.69,1.89-.99.41-.19.84-.37,1.21-.63.55-.4,1.09-.74,1.81-.84.69-.09,1.36-.34,2.04-.47.38-.07.78-.04,1.18-.05.38,0,.76,0,1.16,0-.02.06-.04.15-.07.29.21-.05.47-.04.57-.16.34-.39.8-.34,1.24-.38.57-.04,1.15-.05,1.72-.07.55-.02,1.09-.13,1.64.03.09.03.23,0,.32-.05.76-.43,1.62-.21,2.42-.36.44-.08.92-.15,1.34-.05.87.19,1.69-.18,2.53-.07.15.02.31.01.43.08.22.13.41.07.62.02.43-.1.86-.23,1.3.06.12.08.4.11.49.03.61-.53,1.31-.2,1.96-.24.87-.04,1.74-.08,2.62-.12.07,0,.14-.02.2,0,1.06.26,2.11-.03,3.17-.04,1.16-.01,2.32.01,3.48.08.32.02.65-.03.98-.03.13,0,.29-.02.39.04.82.48,1.63.13,2.43-.04.11-.02.2-.08.32-.13.4.41.91.22,1.38.21.34,0,.67-.22,1.02-.05.65-.28,1.39-.36,1.97-.79.3-.23.33-.44.16-.82-.18-.4-.41-.8-.53-1.22-.09-.3-.05-.63-.07-.95-.15-.05-.25-.11-.35-.12-.29-.05-.35-.23-.28-.47.05-.21.15-.43.15-.64,0-.21-.13-.41-.2-.63-.11.02-.22.04-.34.06-.01-.08-.04-.14-.03-.16.19-.19.26-.36.19-.65-.12-.51-.18-1.04-.16-1.56.01-.4-.1-.69-.45-.89.06-.24.1-.44.16-.69-.73-.02-.51-.67-.8-.94.06-.32.64-.2.46-.67-.14-.03-.3-.06-.48-.09-.05-.38.14-.78-.2-1.09.39-.34.08-.7.06-1.06-.17-.05-.31-.09-.51-.14.12-.2.22-.37.34-.57-.13-.1-.27-.17-.36-.27-.22-.23-.42-.57-.19-.8.38-.38.1-.77.16-1.15.05-.32.03-.65.04-.98.02-.39-.07-.74-.4-1.06.13-.07.24-.13.41-.23-.07-.32-.15-.66-.21-1.01-.04-.23-.01-.47-.07-.68-.25-.9,0-1.81-.11-2.71-.03-.23-.11-.46-.19-.77.23-.21.5-.52.17-.95-.04-.05.03-.18.05-.27.05-.31.12-.62.16-.93.02-.17-.1-.23-.26-.3-.29-.12-.31-.31-.05-.43.53-.24.65-.68.5-1.11-.13-.39.27-.63.13-.99-.1-.03-.22-.07-.38-.13.34-.33.52-.67.19-1,.18-.26.36-.46.46-.7.11-.24.02-.47-.14-.71-.2-.29.15-1.07.59-1.35-.31-.38.1-.73.07-1.11q-.57-.52-.11-1.08c.13-.16.25-.3.11-.51-.03-.05-.07-.16-.05-.17.45-.3.18-.63.04-.88.23-.34.43-.63.62-.92,0,0-.13-.08-.2-.13.24-.14.54-.15.49-.6-.03-.24.35-.55.59-.78.45-.43.94-.82,1.41-1.23.34-.3.66-.6.99-.91.18-.16.18-.17.79-.23Zm17.41,56.57c-.29.31-.36.49-.04.7.01-.2.02-.38.04-.7Zm-11.04.94s.06.07.09.11q.34-.08.25-.44c-.14.14-.24.23-.34.33Zm-9.49-46.3c-.11.11-.2.16-.2.21,0,.06.09.12.15.16.02.01.13-.06.13-.1,0-.06-.04-.13-.08-.27Zm31.28,13.72c-.06.01-.12.03-.17.04.06.12.12.23.18.35.03-.01.07-.03.1-.04-.04-.12-.07-.23-.11-.35Zm-34.56,60.79c-.07.1-.14.15-.13.18.02.05.07.11.13.12.03,0,.13-.06.13-.08-.01-.06-.06-.12-.12-.22Z" style="fill: blue; stroke-width: 0px;"/>
    <path d="m382.7,35.9l-.59.44s-.06-.07-.09-.11c.18-.16.36-.31.54-.47.05.05.1.09.15.14Z" style="fill: blue; stroke-width: 0px;"/>
    <path d="m378.01,63.92c.08,0,.16,0,.24,0,.01,0,.01.06.02.1h-.26s0-.07,0-.1Z" style="fill: blue; stroke-width: 0px;"/>
    <path d="m387.07,57.32c-.02.33-.03.5-.04.7-.31-.21-.25-.39.04-.7Z" style="fill: blue; stroke-width: 0px;"/>
    <path d="m397.82,25.67c.04.12.07.23.11.35-.03.01-.07.03-.1.04-.06-.12-.12-.23-.18-.35.06-.01.12-.03.17-.04Z" style="fill: blue; stroke-width: 0px;"/>
    <path d="m363.26,86.46c.06.1.11.16.12.22,0,.02-.09.09-.13.08-.05-.02-.11-.07-.13-.12,0-.03.06-.08.13-.18Z" style="fill: blue; stroke-width: 0px;"/>
  </g>
  <rect x="155.34" y="33.91" width="6.98" height="6.94" style="stroke-width: 0px;"/>
  <path d="m243.62,28.96c-1.26-.13-8.12-1.97-12.5,2.09-2.37,2.2-2.31,5.44-2.13,9.19h6.74c-.96-5.74,1.26-6.07,5.08-5.74.95.08,1.91.29,2.8.38v-5.92Z" style="stroke-width: 0px;"/>
  <g>
    <g id="mZr4Vy">
      <g>
        <path d="m66.47,78.61c.19,0,.36,0,.54,0,1.89,0,3.77,0,5.66,0,1.84,0,3.4,1.05,3.99,2.68.62,1.69.15,3.78-1.62,4.84-.03.02-.06.04-.1.08.21.1.41.18.59.29,1.43.8,2.06,2.07,2.04,3.66-.03,2.12-1.46,3.81-3.54,4.24-.28.06-.58.09-.87.09-2.17,0-4.34,0-6.51,0-.05,0-.11,0-.18,0v-15.87Zm1.09,8.24v6.6c.07,0,.14.01.2.01,1.79,0,3.59,0,5.38,0,.24,0,.48-.02.71-.07,1.61-.32,2.76-1.86,2.63-3.5-.14-1.81-1.33-3.01-3.12-3.04-1.88-.04-3.77-.01-5.66-.02-.04,0-.09,0-.15.02Zm0-7.19v6.14c1.89,0,3.75.01,5.62-.01.35,0,.72-.13,1.05-.28,1.19-.57,1.83-2.01,1.54-3.39-.28-1.37-1.43-2.42-2.77-2.45-1.77-.04-3.55-.02-5.32-.02-.03,0-.07.01-.11.02Z" style="stroke-width: 0px;"/>
        <path d="m129.63,85.85v-2.72h.99v15.87h-.99v-7.26s-.03,0-.05,0c-.14.23-.28.46-.43.69-1.49,2.2-4.15,2.89-6.45,2.09-2.38-.82-3.74-2.54-4.1-5.03-.37-2.61,1.29-5.36,3.77-6.27,1.93-.71,3.77-.57,5.48.63.68.47,1.19,1.1,1.6,1.82.04.07.08.14.12.21.02,0,.04,0,.06-.01Zm-5.03-2.08c-2.78-.02-5.01,2.22-5.02,5.03,0,2.78,2.22,5.02,4.99,5.03,2.78,0,5.04-2.24,5.05-5.01,0-2.78-2.23-5.02-5.02-5.04Z" style="stroke-width: 0px;"/>
        <path d="m27.16,85.92v-2.79h1.01v11.34h-1v-2.73s-.03,0-.05-.01c-.04.06-.08.13-.12.19-1.44,2.63-4.35,3.44-6.81,2.57-2.36-.84-3.72-2.55-4.05-5.03-.43-3.21,2.03-6.3,5.25-6.62,2.53-.25,4.43.73,5.68,2.96.01.02.03.04.1.13Zm-10.04,2.85c-.04,2.76,2.18,5.02,4.97,5.05,2.76.03,5.02-2.18,5.07-4.96.05-2.76-2.17-5.04-4.97-5.09-2.79-.05-5.03,2.16-5.07,5Z" style="stroke-width: 0px;"/>
        <path d="m53,89.32h-10.53c.26,1.83,1.14,3.21,2.79,3.97,2.24,1.03,4.25.57,6-1.18.04.02.54.41.77.58-.66.76-1.43,1.32-2.35,1.68-3.72,1.47-7.79-.98-8.22-4.96-.41-3.79,2.86-7.05,6.63-6.61,2.31.27,4.1,1.86,4.67,4.12.2.78.3,1.56.23,2.38Zm-1.02-1.01c-.05-.32-.08-.61-.15-.89-.37-1.49-1.15-2.68-2.6-3.3-2.21-.94-4.9,0-6.09,2.1-.37.64-.6,1.33-.66,2.09h9.49Z" style="stroke-width: 0px;"/>
        <path d="m157.22,89.32h-10.53c.25,1.81,1.12,3.19,2.75,3.95,2.25,1.05,4.27.59,6.04-1.17.24.18.49.37.79.61-.35.31-.66.63-1.01.89-3.73,2.75-8.97.52-9.55-4.04-.28-2.23.47-4.12,2.25-5.5,1.84-1.42,3.9-1.72,6.05-.78,1.6.7,2.51,2.02,2.98,3.67.22.76.29,1.54.23,2.37Zm-1.02-1.01c-.05-.33-.08-.63-.15-.92-.37-1.48-1.15-2.66-2.59-3.27-2.21-.94-4.9,0-6.09,2.1-.37.64-.6,1.33-.66,2.09h9.49Z" style="stroke-width: 0px;"/>
        <path d="m79.84,88.8c0-3.33,2.68-6.01,6-6.01,3.33,0,6.03,2.69,6.03,6.02,0,3.33-2.7,6.02-6.04,6.01-3.32,0-6-2.69-6-6.02Zm1.01,0c0,2.79,2.23,5.02,5,5.02,2.78,0,4.99-2.23,4.99-5.02,0-2.81-2.23-5.04-5.01-5.03-2.77.01-4.99,2.25-4.98,5.04Z" style="stroke-width: 0px;"/>
        <path d="m94.2,83.13h1.01v.34c0,2.13,0,4.27,0,6.4,0,.85.14,1.66.59,2.39.93,1.5,2.85,2.02,4.49,1.17,1.57-.82,2.35-2.16,2.37-3.91.02-2.02,0-4.05,0-6.07,0-.1,0-.2,0-.31h1v11.34h-.99v-2.27s-.04-.02-.06-.03c-.04.07-.08.14-.12.21-.71,1.21-1.7,2.04-3.1,2.34-2.17.46-4.25-.75-4.91-2.88-.18-.58-.28-1.2-.28-1.8-.03-2.24-.01-4.48-.01-6.73,0-.05,0-.11,0-.19Z" style="stroke-width: 0px;"/>
        <path d="m142.16,83.12h1v11.34h-.99v-2.28s-.03-.01-.05-.02c-.04.07-.09.14-.13.21-.93,1.56-2.26,2.45-4.11,2.42-1.96-.03-3.58-1.4-4.01-3.36-.1-.46-.16-.94-.17-1.41-.02-2.23,0-4.47,0-6.7,0-.06,0-.13,0-.2h1.01v.31c0,2.13,0,4.27,0,6.4,0,.86.13,1.68.59,2.42.93,1.5,2.85,2.01,4.49,1.16,1.57-.82,2.35-2.16,2.37-3.92.02-2.01,0-4.03,0-6.04,0-.1,0-.2,0-.33Z" style="stroke-width: 0px;"/>
        <path d="m5.13,79.63H0v-1.01h11.3v1h-5.09v14.85h-1.09v-14.84Z" style="stroke-width: 0px;"/>
        <path d="m112.38,93.51c0,.28,0,.55,0,.83,0,.07-.07.17-.14.19-.95.39-1.91.42-2.83-.08-.81-.44-1.1-1.21-1.2-2.07-.04-.33-.04-.66-.04-.99,0-2.32,0-4.63,0-6.95,0-.11,0-.21,0-.34h-2.49v-.99h2.49v-2.94h1.03v2.93h3.18v.98h-3.17c0,.12-.01.21-.01.3,0,2.44,0,4.87,0,7.31,0,.24.01.48.05.71.14.96.63,1.4,1.6,1.41.26,0,.53-.04.79-.09.25-.05.49-.14.75-.21Z" style="stroke-width: 0px;"/>
        <path d="m55.31,78.62h.99v15.85h-.99v-15.85Z" style="stroke-width: 0px;"/>
        <path d="m11.87,94.47h-1.01v-11.34h1v2.41c.97-1.44,2.2-2.42,4.01-2.55v.97c-.23.03-.47.05-.7.1-1.6.34-2.95,1.72-3.25,3.31-.05.25-.05.51-.05.77,0,2,0,3.99,0,5.99,0,.11,0,.22,0,.35Z" style="stroke-width: 0px;"/>
        <path d="m115.97,94.47h-.99v-11.34h.99v11.34Z" style="stroke-width: 0px;"/>
        <path d="m116.33,79.39c-.02.46-.41.82-.87.8-.48-.02-.84-.4-.83-.87.02-.47.42-.84.88-.83.46.02.84.43.81.89Z" style="stroke-width: 0px;"/>
      </g>
    </g>
    <polygon points="39.6 83.11 35.33 93.45 31.05 83.11 29.87 83.11 34.67 94.48 34.9 94.48 35.75 94.48 35.98 94.48 40.78 83.11 39.6 83.11" style="stroke-width: 0px;"/>
  </g>
</svg>